<svg id="Layer_1" data-name="Layer 1" xmlns="http://www.w3.org/2000/svg" width="93.86mm" height="47.69mm" viewBox="0 0 266.07 135.19"><defs><style>.cls-1{fill:#030202;}.cls-2{fill:#fdfdfe;}</style></defs><title>datacafe-logotype</title><path class="cls-1" d="M553.28,427.78H537L531.35,442h-3.11l16.16-40.35h1.79L562,442h-3.16ZM538,425.25h14.38l-5.47-14.48q-0.69-1.7-1.65-4.73a44,44,0,0,1-1.62,4.78Z" transform="translate(-498.49 -307.33)"/><path class="cls-1" d="M578.18,442h-2.83V404.42H562.3v-2.64h28.94v2.64H578.18V442Z" transform="translate(-498.49 -307.33)"/><path class="cls-1" d="M616.55,427.78H600.22L594.62,442h-3.11l16.16-40.35h1.79L625.29,442h-3.16Zm-15.31-2.53h14.37l-5.47-14.48q-0.69-1.7-1.65-4.73a44,44,0,0,1-1.62,4.78Z" transform="translate(-498.49 -307.33)"/><path class="cls-2" d="M662.75,403.73q-7.56,0-11.9,4.84t-4.34,13.25q0,8.6,4.09,13.36t11.71,4.75a31.71,31.71,0,0,0,9.29-1.29v2.47a30.31,30.31,0,0,1-10,1.4q-8.47,0-13.33-5.47t-4.86-15.28a24,24,0,0,1,2.32-10.8,16.8,16.8,0,0,1,6.68-7.21,19.73,19.73,0,0,1,10.13-2.54,24.32,24.32,0,0,1,10.53,2.2L672,405.93A20.39,20.39,0,0,0,662.75,403.73Z" transform="translate(-498.49 -307.33)"/><path class="cls-1" d="M699.91,427.78H683.59L678,442h-3.11L691,401.61h1.79L708.65,442h-3.16Zm-15.31-2.53H699l-5.47-14.48q-0.69-1.7-1.65-4.73a44,44,0,0,1-1.62,4.78Z" transform="translate(-498.49 -307.33)"/><path class="cls-1" d="M717.15,442h-2.8V401.78h22v2.58H717.15v17h18.14V424H717.15V442Z" transform="translate(-498.49 -307.33)"/><path class="cls-1" d="M764.56,442h-22V401.78h22v2.58H745.4v15.2h18.08v2.58H745.4v17.23h19.16V442Z" transform="translate(-498.49 -307.33)"/><path class="cls-1" d="M519.68,406.81q-5-5-14.64-5h-6.56v2.47h5.9q8.49,0,12.88,4.36t4.38,13q0,17.89-18,17.89h-5.16V442h5.32q10.28,0,15.58-5.18t5.3-15.29Q524.7,411.84,519.68,406.81Z" transform="translate(-498.49 -307.33)"/><path class="cls-1" d="M670.17,439.63h-5.9q-8.49,0-12.88-4.36t-4.38-13q0-17.89,18-17.89h5.16v-2.47h-5.32q-10.28,0-15.58,5.18T644,422.39q0,9.65,5,14.68t14.64,5h6.56v-2.47Z" transform="translate(-498.49 -307.33)"/><path class="cls-1" d="M665.26,370.89H654.06q-14.32,0-21.71-7.34T625,341.66q0-30.16,30.35-30.16h9.94v-4.17H655q-17.33,0-26.27,8.73t-8.94,25.78q0,16.26,8.46,24.74T653,375.06h12.31v-4.17Z" transform="translate(-498.49 -307.33)"/><path class="cls-1" d="M634.85,315.8q-8.46-8.48-24.67-8.48h-12.4v4.17h11.28q14.32,0,21.71,7.34t7.39,21.89q0,30.16-30.35,30.16h-10v4.17H608.1q17.33,0,26.27-8.73t8.94-25.78Q643.31,324.28,634.85,315.8Z" transform="translate(-498.49 -307.33)"/></svg>